<?xml version="1.0" encoding="utf-8"?>
<!-- Generator: Adobe Illustrator 26.0.1, SVG Export Plug-In . SVG Version: 6.00 Build 0)  -->
<svg version="1.1" id="Layer_1" xmlns="http://www.w3.org/2000/svg" xmlns:xlink="http://www.w3.org/1999/xlink" x="0px" y="0px"
	 viewBox="0 0 209 54" style="enable-background:new 0 0 209 54;" xml:space="preserve">
<style type="text/css">
	
		.st0{fill-rule:evenodd;clip-rule:evenodd;fill:#2584FF;stroke:#2584FF;stroke-width:10;stroke-linecap:round;stroke-linejoin:round;}
	
		.st1{fill-rule:evenodd;clip-rule:evenodd;fill:#FF3400;stroke:#FF3400;stroke-width:10;stroke-linecap:round;stroke-linejoin:round;}
	.st2{enable-background:new    ;}
	.st3{fill:#FFFFFF;}
</style>
<path id="Polygon_1_copy_2" class="st0" d="M39.9,29.7l-19.6,9.5L28,14L39.9,29.7z"/>
<path id="Polygon_1_copy_2-2" class="st1" d="M33,29.7l19.6,9.5L44.8,14L33,29.7z"/>
<g id="Moshify" class="st2">
	<path class="st3" d="M63.7,36.4V16.8h5.3v7.9h0.3l5.9-7.9h6.2l-6.6,8.7l6.8,10.9h-6.4l-4.4-7.4l-1.8,2.3v5.1H63.7z"/>
	<path class="st3" d="M89.9,36.7c-1.6,0-2.9-0.3-4.1-0.9c-1.1-0.6-2-1.5-2.6-2.6c-0.6-1.1-0.9-2.5-0.9-4.1c0-1.5,0.3-2.9,0.9-4
		c0.6-1.1,1.5-2,2.6-2.7s2.4-0.9,4-0.9c1.1,0,2.1,0.2,3,0.5s1.7,0.8,2.3,1.5c0.6,0.7,1.1,1.4,1.5,2.4s0.5,2,0.5,3.2v1.2H83.9v-2.9
		h8.3c0-0.4-0.1-0.8-0.3-1.1c-0.2-0.3-0.5-0.6-0.8-0.8c-0.3-0.2-0.7-0.3-1.2-0.3c-0.4,0-0.8,0.1-1.2,0.3s-0.6,0.4-0.9,0.8
		c-0.2,0.3-0.3,0.7-0.3,1.1v3.1c0,0.5,0.1,0.9,0.3,1.3c0.2,0.4,0.5,0.7,0.9,0.9S89.5,33,90,33c0.4,0,0.7-0.1,1-0.2
		c0.3-0.1,0.6-0.3,0.8-0.4c0.2-0.2,0.4-0.4,0.5-0.7h4.8c-0.2,1-0.6,1.9-1.2,2.7c-0.6,0.8-1.4,1.3-2.5,1.7
		C92.4,36.5,91.2,36.7,89.9,36.7z"/>
	<path class="st3" d="M99,36.4V21.7h5.1v2.8h0.2c0.3-1,0.7-1.8,1.3-2.3c0.6-0.5,1.3-0.7,2.1-0.7c0.2,0,0.5,0,0.7,0.1
		c0.2,0,0.4,0.1,0.7,0.1v4.5c-0.3-0.1-0.6-0.2-1-0.2c-0.4,0-0.7-0.1-1-0.1c-0.5,0-1,0.1-1.4,0.4s-0.7,0.6-1,1
		c-0.2,0.4-0.4,0.9-0.4,1.5v7.7H99z"/>
	<path class="st3" d="M117.5,36.7c-1.6,0-3-0.3-4.1-1c-1.1-0.6-2-1.5-2.6-2.7c-0.6-1.1-0.9-2.5-0.9-4c0-1.5,0.3-2.8,0.9-4
		c0.6-1.1,1.5-2,2.6-2.7c1.1-0.6,2.5-1,4.1-1c1.6,0,3,0.3,4.1,1c1.1,0.6,2,1.5,2.6,2.7c0.6,1.1,0.9,2.5,0.9,4c0,1.5-0.3,2.8-0.9,4
		s-1.5,2-2.6,2.7C120.5,36.4,119.1,36.7,117.5,36.7z M117.5,32.8c0.4,0,0.8-0.1,1.2-0.5c0.3-0.3,0.6-0.7,0.8-1.3
		c0.2-0.6,0.3-1.2,0.3-2c0-0.8-0.1-1.4-0.3-2c-0.2-0.6-0.4-1-0.8-1.3c-0.3-0.3-0.7-0.5-1.2-0.5c-0.5,0-0.9,0.2-1.2,0.5
		c-0.3,0.3-0.6,0.7-0.8,1.3c-0.2,0.6-0.3,1.2-0.3,2c0,0.8,0.1,1.4,0.3,2c0.2,0.6,0.4,1,0.8,1.3C116.7,32.6,117.1,32.8,117.5,32.8z"
		/>
	<path class="st3" d="M132,36.4V16.8h5.3v7.7h7.1v-7.7h5.3v19.6h-5.3v-7.7h-7.1v7.7H132z"/>
	<path class="st3" d="M159.2,36.7c-1.6,0-3-0.3-4.1-1c-1.1-0.6-2-1.5-2.6-2.7c-0.6-1.1-0.9-2.5-0.9-4c0-1.5,0.3-2.8,0.9-4
		c0.6-1.1,1.5-2,2.6-2.7c1.1-0.6,2.5-1,4.1-1s3,0.3,4.1,1c1.1,0.6,2,1.5,2.6,2.7c0.6,1.1,0.9,2.5,0.9,4c0,1.5-0.3,2.8-0.9,4
		s-1.5,2-2.6,2.7C162.1,36.4,160.8,36.7,159.2,36.7z M159.2,32.8c0.4,0,0.8-0.1,1.2-0.5c0.3-0.3,0.6-0.7,0.8-1.3
		c0.2-0.6,0.3-1.2,0.3-2c0-0.8-0.1-1.4-0.3-2s-0.4-1-0.8-1.3c-0.3-0.3-0.7-0.5-1.2-0.5c-0.5,0-0.9,0.2-1.2,0.5
		c-0.3,0.3-0.6,0.7-0.8,1.3s-0.3,1.2-0.3,2c0,0.8,0.1,1.4,0.3,2c0.2,0.6,0.4,1,0.8,1.3C158.3,32.6,158.7,32.8,159.2,32.8z"/>
	<path class="st3" d="M182.2,26.5h-4.9c0-0.3-0.1-0.6-0.3-0.8s-0.4-0.4-0.7-0.5c-0.3-0.1-0.6-0.2-1-0.2c-0.5,0-0.8,0.1-1.2,0.2
		c-0.3,0.2-0.5,0.4-0.5,0.7c0,0.2,0.1,0.4,0.3,0.6s0.6,0.3,1.1,0.4l3,0.5c1.5,0.3,2.6,0.7,3.4,1.4s1.1,1.5,1.1,2.6
		c0,1-0.3,2-0.9,2.7s-1.5,1.4-2.5,1.8c-1.1,0.4-2.3,0.6-3.6,0.6c-2.2,0-4-0.5-5.3-1.4c-1.3-0.9-2-2.1-2.1-3.6h5.3
		c0.1,0.5,0.3,0.8,0.7,1.1c0.4,0.3,0.9,0.4,1.5,0.4c0.5,0,0.9-0.1,1.2-0.2c0.3-0.2,0.5-0.4,0.5-0.7c0-0.3-0.1-0.5-0.4-0.7
		s-0.7-0.3-1.3-0.4l-2.6-0.5c-1.5-0.3-2.6-0.8-3.4-1.5c-0.7-0.7-1.1-1.7-1.1-2.8c0-1,0.3-1.9,0.8-2.6c0.5-0.7,1.3-1.3,2.3-1.6
		c1-0.4,2.2-0.6,3.6-0.6c2.1,0,3.8,0.4,5,1.3C181.4,23.7,182.1,24.9,182.2,26.5z"/>
	<path class="st3" d="M193.1,21.7v3.8h-9.7v-3.8H193.1z M185.3,18.2h5.3v13.5c0,0.2,0,0.4,0.1,0.5c0.1,0.1,0.2,0.2,0.3,0.3
		c0.1,0.1,0.3,0.1,0.6,0.1c0.2,0,0.3,0,0.6-0.1c0.2,0,0.4-0.1,0.5-0.1l0.8,3.7c-0.2,0.1-0.6,0.2-1,0.3c-0.4,0.1-1,0.2-1.6,0.2
		c-1.2,0.1-2.2-0.1-3.1-0.4s-1.4-0.8-1.9-1.5c-0.4-0.7-0.6-1.5-0.6-2.6V18.2z"/>
</g>
</svg>
